#!OML:ASF H:\Punching\Project 1\Capture day 1\Session 1\female.ASF
:FULLY-SPECIFIED
:DEGREES
733
root -5.62806 15.6327 18.8805 13.6591 172.974 5.08445
lowerback -5.1539 0.842371 6.69664
upperback -5.45015 1.38534 0.79443
thorax -2.65129 0.674982 -2.89695
lowerneck -14.8634 0.38617 9.04577
upperneck 39.3578 4.71155 -5.57242
head 17.1871 4.09089 -2.79746
rclavicle 1.1944e-014 1.0635e-014
rhumerus -19.2295 3.78187 -77.8358
rradius 35.5026
rwrist 1.83365
rhand -14.1102 -6.73179
rfingers 7.12502
rthumb 12.0229 -36.3664
lclavicle 1.1944e-014 1.0635e-014
lhumerus -49.2921 11.2972 72.0948
lradius 37.3028
lwrist -15.5803
lhand -4.89946 12.8901
lfingers 7.12502
lthumb 20.89 41.7853
rfemur 3.60801 0.903991 31.8606
rtibia -1.27222e-014
rfoot -12.0513 -14.3341
rtoes 3.81859
lfemur -41.7103 -10.9372 -10.041
ltibia 20.5614
lfoot -20.621 21.0433
ltoes -9.73215
734
root -5.60869 15.6216 18.7559 13.7716 172.906 5.22446
lowerback -5.25983 0.874928 6.74857
upperback -5.50397 1.43045 0.794497
thorax -2.64426 0.698963 -2.92305
lowerneck -14.865 0.391509 9.08389
upperneck 39.3707 4.69225 -5.53054
head 17.1924 4.09578 -2.78858
rclavicle 1.08167e-014 1.31695e-014
rhumerus -19.1384 3.82669 -78.1602
rradius 35.7947
rwrist 1.75226
rhand -14.0999 -6.69206
rfingers 7.12502
rthumb 12.0328 -36.3261
lclavicle 1.08167e-014 1.31695e-014
lhumerus -49.3761 11.4192 72.0982
lradius 37.0679
lwrist -15.8537
lhand -4.68161 12.8133
lfingers 7.12502
lthumb 21.0993 41.6854
rfemur 4.0343 0.871325 31.9673
rtibia -1.59028e-014
rfoot -12.274 -14.1542
rtoes 3.09173
lfemur -41.9933 -11.5214 -9.32187
ltibia 20.2602
lfoot -20.9045 21.0845
ltoes -10.1169
735
root -5.59126 15.61 18.6291 13.8817 172.817 5.36172
lowerback -5.36875 0.912823 6.81224
upperback -5.55647 1.48145 0.786223
thorax -2.63325 0.725343 -2.96395
lowerneck -14.8736 0.397321 9.11962
upperneck 39.3877 4.6701 -5.48049
head 17.2012 4.10008 -2.77608
rclavicle 2.66542e-014 2.42517e-014
rhumerus -19.0948 3.8458 -78.4964
rradius 36.0832
rwrist 1.70689
rhand -14.071 -6.649
rfingers 7.12502
rthumb 12.0607 -36.2814
lclavicle 2.66542e-014 2.42517e-014
lhumerus -49.4548 11.5427 72.0757
lradius 36.8036
lwrist -16.1523
lhand -4.44528 12.7347
lfingers 7.12502
lthumb 21.3263 41.5812
rfemur 4.4713 0.858347 32.0536
rtibia -2.54444e-014
rfoot -12.4537 -13.9629
rtoes 2.24805
lfemur -42.1867 -11.9554 -8.73058
ltibia 20.1182
lfoot -21.1039 21.057
ltoes -10.2815
736
root -5.57578 15.5982 18.4999 13.9907 172.706 5.49635
lowerback -5.48605 0.955446 6.88535
upperback -5.60808 1.53738 0.771505
thorax -2.61583 0.75393 -3.0163
lowerneck -14.8861 0.403861 9.15586
upperneck 39.4091 4.64767 -5.42745
head 17.2134 4.10488 -2.76236
rclavicle -2.30621e-015 -1.92821e-014
rhumerus -19.1101 3.86133 -78.8432
rradius 36.3796
rwrist 1.67428
rhand -14.0387 -6.58846
rfingers 7.12502
rthumb 12.0918 -36.2191
lclavicle -2.30621e-015 -1.92821e-014
lhumerus -49.5342 11.6709 72.0264
lradius 36.5153
lwrist -16.4681
lhand -4.19757 12.6548
lfingers 7.12502
lthumb 21.5642 41.4743
rfemur 4.91856 0.866763 32.1189
rtibia -3.81667e-014
rfoot -12.594 -13.7613
rtoes 1.30258
lfemur -42.2651 -12.1672 -8.32669
ltibia 20.1104
lfoot -21.174 20.9132
ltoes -10.224
737
root -5.56224 15.5859 18.3681 14.094 172.571 5.62685
lowerback -5.60466 1.00384 6.96435
upperback -5.65947 1.60028 0.751108
thorax -2.59644 0.785671 -3.07736
lowerneck -14.911 0.409083 9.19851
upperneck 39.4409 4.62423 -5.38142
head 17.2349 4.10981 -2.75314
rclavicle -2.3382e-014 -2.82274e-014
rhumerus -19.1888 3.86753 -79.1955
rradius 36.682
rwrist 1.65824
rhand -14.0127 -6.51012
rfingers 7.12502
rthumb 12.1168 -36.1393
lclavicle -2.3382e-014 -2.82274e-014
lhumerus -49.6197 11.803 71.9529
lradius 36.1915
lwrist -16.7935
lhand -3.97747 12.5588
lfingers 7.12502
lthumb 21.7756 41.3538
rfemur 5.38237 0.895591 32.1623
rtibia 0
rfoot -12.7 -13.5517
rtoes 0.273922
lfemur -42.216 -12.1654 -8.11421
ltibia 20.2181
lfoot -21.1029 20.6654
ltoes -9.90839
738
root -5.55045 15.5731 18.2338 14.1986 172.418 5.74747
lowerback -5.74027 1.0572 7.04319
upperback -5.70545 1.6672 0.722856
thorax -2.56109 0.819686 -3.14565
lowerneck -14.9516 0.415724 9.24028
upperneck 39.4757 4.59783 -5.33126
head 17.2618 4.11314 -2.74248
rclavicle -3.69258e-014 7.95139e-015
rhumerus -19.3192 3.87006 -79.5515
rradius 36.9947
rwrist 1.65169
rhand -13.9952 -6.40872
rfingers 7.12502
rthumb 12.1337 -36.0369
lclavicle -3.69258e-014 7.95139e-015
lhumerus -49.6961 11.9476 71.8508
lradius 35.8485
lwrist -17.1267
lhand -3.75018 12.4812
lfingers 7.12502
lthumb 21.9938 41.2508
rfemur 5.8521 0.940674 32.1795
rtibia 3.18055e-015
rfoot -12.7736 -13.3361
rtoes -0.819524
lfemur -42.0618 -11.99 -8.07248
ltibia 20.4363
lfoot -20.8793 20.3584
ltoes -9.4706
739
root -5.54028 15.5602 18.0966 14.3023 172.241 5.8494
lowerback -5.89154 1.11314 7.1061
upperback -5.75297 1.73673 0.688561
thorax -2.51823 0.85573 -3.21062
lowerneck -14.9894 0.422709 9.2876
upperneck 39.5161 4.57518 -5.2872
head 17.2919 4.11889 -2.73484
rclavicle -1.02234e-014 -1.96797e-014
rhumerus -19.5123 3.88535 -79.9103
rradius 37.3143
rwrist 1.64064
rhand -13.9742 -6.3019
rfingers 7.12502
rthumb 12.1539 -35.9288
lclavicle -1.02234e-014 -1.96797e-014
lhumerus -49.7886 12.1041 71.7186
lradius 35.4932
lwrist -17.461
lhand -3.52457 12.4255
lfingers 7.12502
lthumb 22.2104 41.1694
rfemur 6.33081 1.00571 32.1605
rtibia -1.59028e-014
rfoot -12.8208 -13.1175
rtoes -1.95073
lfemur -41.8207 -11.641 -8.21264
ltibia 20.7547
lfoot -20.4821 20.0366
ltoes -9.09179
740
root -5.53188 15.5493 17.9562 14.3975 172.037 5.92638
lowerback -6.06091 1.17385 7.15103
upperback -5.79122 1.80959 0.643747
thorax -2.45487 0.894205 -3.2754
lowerneck -15.0304 0.431876 9.33603
upperneck 39.5535 4.55172 -5.24061
head 17.3212 4.12407 -2.72645
rclavicle 1.4297e-014 -9.14409e-015
rhumerus -19.7524 3.91336 -80.2708
rradius 37.644
rwrist 1.62613
rhand -13.8992 -6.15872
rfingers 7.12502
rthumb 12.2263 -35.7814
lclavicle 1.4297e-014 -9.14409e-015
lhumerus -49.873 12.2691 71.5613
lradius 35.1246
lwrist -17.7955
lhand -3.31953 12.3835
lfingers 7.12502
lthumb 22.4073 41.1039
rfemur 6.82023 1.0892 32.097
rtibia 3.18055e-015
rfoot -12.8239 -12.8996
rtoes -3.16391
lfemur -41.5289 -11.1765 -8.49419
ltibia 21.1543
lfoot -19.8571 19.8122
ltoes -8.85031
